<?xml version="1.0" encoding="UTF-8"?>
<svg id="Layer_2" data-name="Layer 2" xmlns="http://www.w3.org/2000/svg" viewBox="0 0 2000.2 3083.19">
  <defs>
    <style>
      .cls-1 {
        stroke-width: 33.12px;
      }

      .cls-1, .cls-2 {
        fill: none;
        stroke: #33c06b;
        stroke-miterlimit: 10;
      }

      .cls-2 {
        stroke-width: 54.72px;
      }
    </style>
  </defs>
  <g id="Layer_1-2" data-name="Layer 1">
    <path class="cls-2" d="M1087.12,2903.81c-147.71,4.23-302.44,4.62-463.58,0-118.3-3.39-232.91-9.27-343.59-17.15-20.52-80.48-48.26-200.84-70.9-348.8-50.66-331.07-104.08-680.18,21.82-1069.28,28.46-87.96,86.97-263.89,223.61-446.01,108.02-143.98,177.39-175.22,294.51-320.21,76.98-95.3,175.32-240.64,256.33-451.73"/>
    <path class="cls-2" d="M916.03,2903.81c147.71,4.23,302.44,4.62,463.58,0,118.3-3.39,232.91-9.27,343.59-17.15,20.52-80.48,48.26-200.84,70.9-348.8,50.66-331.07,104.08-680.18-21.82-1069.28-28.46-87.96-86.97-263.89-223.61-446.01-108.02-143.98-177.39-175.22-294.51-320.21-76.98-95.3-175.32-240.64-256.33-451.73"/>
    <path class="cls-2" d="M1098.19,3052.02c-169.37,4.85-346.78,5.29-531.55,0-135.65-3.89-267.06-10.63-393.97-19.67-23.53-92.28-55.34-230.29-81.3-399.95-58.09-379.61-119.34-779.91,25.01-1226.07,32.63-100.86,99.72-302.58,256.4-511.41,123.86-165.09,203.4-200.92,337.69-367.16,88.27-109.27,201.02-275.93,293.92-517.96"/>
    <path class="cls-2" d="M902.01,3052.02c169.37,4.85,346.78,5.29,531.55,0,135.65-3.89,267.06-10.63,393.97-19.67,23.53-92.28,55.34-230.29,81.3-399.95,58.09-379.61,119.34-779.91-25.01-1226.07-32.63-100.86-99.72-302.58-256.4-511.41-123.86-165.09-203.4-200.92-337.69-367.16-88.27-109.27-201.02-275.93-293.92-517.96"/>
    <path class="cls-2" d="M982.25,2036.15c-117.28-120.55-234.55-241.1-351.83-361.64"/>
    <circle class="cls-1" cx="1002.49" cy="238.54" r="1.66"/>
    <path class="cls-2" d="M1131.31,1811.06c-163.99-170.56-327.98-341.11-491.96-511.67"/>
    <path class="cls-2" d="M1451.19,1789.5c-163.99-170.56-327.98-341.11-491.96-511.67"/>
  </g>
</svg>